<svg width="22" height="25" viewBox="0 0 22 25" fill="currentColor" xmlns="http://www.w3.org/2000/svg">
<path d="M21.7579 18.0106L13.9978 12.5L21.7579 6.98938C22.3159 6.59263 21.8175 5.73618 21.1922 6.01848L12.4989 9.92494L11.5657 0.507859C11.4983 -0.169286 10.5016 -0.169286 10.4343 0.507859L9.50109 9.92494L0.807843 6.01848C0.182498 5.73808 -0.315866 6.59263 0.242134 6.98938L8.00027 12.5L0.242134 18.0106C-0.315866 18.4074 0.182498 19.2638 0.807843 18.9815L9.50109 15.0751L10.4343 24.4921C10.5016 25.1693 11.4983 25.1693 11.5657 24.4921L12.4989 15.0751L21.1922 18.9815C21.8175 19.2619 22.3159 18.4074 21.7579 18.0106Z" />
</svg>
